<?xml version="1.0" encoding="utf-8"?>
<!-- Generator: Adobe Illustrator 21.0.2, SVG Export Plug-In . SVG Version: 6.00 Build 0)  -->
<svg version="1.1" id="Layer_1" xmlns="http://www.w3.org/2000/svg" xmlns:xlink="http://www.w3.org/1999/xlink" x="0px" y="0px"
	 viewBox="0 0 878.1 672.1" style="enable-background:new 0 0 878.1 672.1;" xml:space="preserve">
<style type="text/css">
	.st0{fill:#F5931D;}
	.st1{fill:#FFFFFF;}
	.st2{fill:#E0E0E0;}
	.st3{fill:#F9A346;}
	.st4{fill:#3C2415;}
	.st5{opacity:0.3;fill:#F9A346;}
</style>
<g id="cat">
	<path id="left-hand" class="st0" d="M655,266.4c0,0,87.9-34.9,85.8-77.8c0,0-8.6-12.2-1.5-17.2c7.7-5.5,14.6,2.7,14.6,2.7
		s8.1-4.5,10.5,2.7c2.3,7-3.3,8-3.3,8s9,3,6.7,9.2c-2.4,6.6-10.3,4.9-10.3,4.9s-28.2,78.7-96.7,102.9
		C592.3,326.1,655,266.4,655,266.4z"/>
	<path id="right-hand" class="st0" d="M205,266.4c0,0-87.9-34.9-85.8-77.8c0,0,8.6-12.2,1.5-17.2c-7.7-5.5-14.6,2.7-14.6,2.7
		s-8.1-4.5-10.5,2.7c-2.3,7,3.3,8,3.3,8s-9,3-6.7,9.2c2.4,6.6,10.3,4.9,10.3,4.9s28.2,78.7,96.7,102.9
		C267.6,326.1,205,266.4,205,266.4z"/>
	<g>
		<g id="tail">
			<g>
				<g>
					<path class="st0" d="M578.1,535.7c52.5,46.1,132.4,51.9,187.3,6.7c21.2-17.4,34.4-42.1,38.7-68.9c4-25,5.3-50.3,8.2-75.3
						c0.2-1.7,1.5-11.8,0.5-4.6c0.4-3,0.9-6,1.3-9c0.9-5.8,2-11.6,3.3-17.4c1.2-5.4,2.7-10.8,4.4-16.1c0.8-2.5,1.7-5,2.7-7.5
						c1.7-4.4-2.2,4.9-0.3,0.7c0.5-1.1,1.1-2.3,1.6-3.4c1.1-2.2,2.3-4.2,3.5-6.3c0.6-1,1.3-2,1.9-2.9c2.5-3.6-3.5,4.3-0.8,0.9
						c1.4-1.7,2.9-3.3,4.5-4.8c0.8-0.7,1.6-1.4,2.5-2.1c-5.4,4.5-2.5,1.9-1.1,1c1.7-1.1,8.7-4.3,1.3-1.2c2.1-0.9,4.2-1.4,6.4-1.9
						c1.6-0.4,5.9-0.8-1.4,0.1c1.2-0.1,2.4-0.2,3.6-0.3c3.1-0.1,6.1,0.1,9.2,0.5c12.2,1.4,22.4-11.3,22.4-22.4
						c0-13.3-10.3-21-22.4-22.4c-26.7-3.2-49.9,10.1-64.4,32c-13.3,20.1-18.1,45.7-21.5,69.1c-3.7,25.7-5.2,51.7-8.4,77.5
						c-0.2,1.5-0.9,6.3,0.1-0.9c-0.2,1.2-0.4,2.5-0.5,3.7c-0.4,2.3-0.8,4.7-1.2,7c-0.8,4.4-1.9,8.8-3.2,13.1
						c-0.3,0.9-0.6,1.7-0.9,2.6c-1.4,3.9,3.3-7.2,0.5-1.2c-1.7,3.5-3.6,6.8-5.6,10.1c-1,1.6-2.1,3.1-3.1,4.7c-3.5,5.1,2.9-3.4-1,1.3
						c-2.7,3.3-5.6,6.3-8.7,9.2c-1,0.9-8,6.7-3.6,3.4c-2.8,2.1-5.8,4.1-8.8,5.9c-2.5,1.5-5.1,2.9-7.7,4.2c-0.8,0.4-6.3,2.8-1,0.6
						c-1.6,0.7-3.3,1.3-4.9,1.9c-6.1,2.2-12.4,3.8-18.7,4.9c-1,0.2-7,0.9-1,0.2c-1.8,0.2-3.5,0.4-5.3,0.5c-3.6,0.3-7.1,0.3-10.7,0.3
						c-3,0-6-0.2-9-0.5c-1-0.1-7-0.8-1.2,0c-1.8-0.2-3.6-0.6-5.3-0.9c-7.2-1.3-14.2-3.3-21-5.8c-1.1-0.4-2.3-0.9-3.4-1.3
						c5.1,2-0.6-0.3-1.4-0.7c-3.3-1.6-6.6-3.3-9.8-5.2c-3.2-1.9-6.3-3.9-9.3-6.1c-5.1-3.6,3.5,2.9-1.4-1c-1.5-1.2-2.9-2.4-4.3-3.7
						c-9.2-8.1-22.7-9.1-31.7,0C569.9,512.2,568.9,527.6,578.1,535.7L578.1,535.7z"/>
				</g>
			</g>
			<path d="M837.3,326.2c-11.1-13.1-26-20.4-39.1-24.3c-2.5,2.8-4.8,5.9-7,9.1c-9,13.6-14.1,29.8-17.5,46
				c11.7,5.4,27.2,18.1,40.1,30c0.1-0.8,0.2-1.6,0.4-2.4c0.9-5.8,2-11.6,3.3-17.4c1.2-5.4,2.7-10.8,4.4-16.1c0.8-2.4,1.6-4.7,2.5-7
				c0.5-1.1,1-2.1,1.5-3.1c1.1-2.2,2.3-4.2,3.5-6.3c0.6-0.9,1.2-1.8,1.8-2.6c1.2-1.5,2.6-2.8,3.9-4.2c0.2-0.2,0.4-0.4,0.7-0.6
				c0.3-0.2,0.5-0.4,0.8-0.5C836.7,326.6,837,326.4,837.3,326.2z"/>
			<path d="M763,443.9c-0.5,4.6-1,9.1-1.5,13.7c0,0.1,0,0.1,0,0.2c-0.1,0.9-0.3,1.8-0.4,2.6c-0.4,2.3-0.8,4.7-1.2,7
				c-0.8,4.4-1.9,8.8-3.2,13.1c-0.2,0.5-0.4,1.1-0.6,1.6c-1.6,3.4-3.5,6.6-5.5,9.8c-1,1.6-2.1,3.1-3.1,4.7c-0.2,0.3-0.3,0.4-0.4,0.6
				c-0.2,0.2-0.3,0.4-0.6,0.7c-1.3,1.6-2.6,3.1-4,4.6c13.3,2.3,26.5,13.3,37.5,25.5c12.8-15.5,21-34.4,24.3-54.5
				c1.5-9.6,2.7-19.3,3.7-29C792.7,440.8,776.4,441.8,763,443.9z M761.2,459.4C761,460.6,760.9,461.3,761.2,459.4L761.2,459.4z"/>
		</g>
		<path class="st0" d="M514.9,89c0,0-93.1-22.3-163.9,0c0,0-41.7-82.2-57.1-77.1C278.5,17-55,724.4,428.2,666.1
			C911.3,724.4,588.8,17,573.3,11.9C557.9,6.7,516.2,89,516.2,89c-70.8-22.3-163.9,0-163.9,0"/>
		<g>
			<circle class="st1" cx="344" cy="194.1" r="30.7"/>
			<path class="st2" d="M321.8,194.1c0-15.5,11.5-28.3,26.4-30.3c-1.4-0.2-2.8-0.3-4.2-0.3c-16.9,0-30.7,13.7-30.7,30.7
				c0,16.9,13.7,30.7,30.7,30.7c1.4,0,2.8-0.1,4.2-0.3C333.3,222.3,321.8,209.5,321.8,194.1z"/>
			<g id="right-eye">
				<circle cx="360.8" cy="186" r="9.2"/>
				<circle class="st1" cx="356.4" cy="180.4" r="3.6"/>
				<circle class="st1" cx="359.4" cy="187.5" r="1.8"/>
			</g>
		</g>
		<g>
			<circle class="st1" cx="496.2" cy="194.1" r="30.7"/>
			<path class="st2" d="M474.1,194.1c0-15.5,11.5-28.3,26.4-30.3c-1.4-0.2-2.8-0.3-4.2-0.3c-16.9,0-30.7,13.7-30.7,30.7
				c0,16.9,13.7,30.7,30.7,30.7c1.4,0,2.8-0.1,4.2-0.3C485.6,222.3,474.1,209.5,474.1,194.1z"/>
			<g id="left-eye">
				<circle cx="513.1" cy="186" r="9.2"/>
				<circle class="st1" cx="508.6" cy="180.4" r="3.6"/>
				<circle class="st1" cx="511.6" cy="187.5" r="1.8"/>
			</g>
		</g>
		<path d="M421,220.3c0,0-13.1-0.3-13.9,5c-0.8,5.3,11.5,17.8,15.4,16.1c3.9-1.7,14-12.2,13.7-16.5C435.9,220.5,423.5,220,421,220.3
			z"/>
		<g>
			<g>
				<g>
					<path d="M419.6,234.1c0,22.2,0,44.4,0,66.6c0,1.6,2.5,1.6,2.5,0c0-22.2,0-44.4,0-66.6C422.1,232.5,419.6,232.5,419.6,234.1
						L419.6,234.1z"/>
				</g>
			</g>
			<g>
				<g>
					<path d="M404.5,298c7.5,3,13.4,5.2,21.6,4.6c5.2-0.4,11.3-1.6,15.4-5.2c1.2-1.1-0.6-2.8-1.8-1.8c-3.7,3.2-9.8,4.1-14.6,4.5
						c-7.6,0.6-13.2-1.8-20-4.6C403.7,295,403,297.4,404.5,298L404.5,298z"/>
				</g>
			</g>
		</g>
		<circle class="st3" cx="550.1" cy="259.2" r="38.9"/>
		<circle class="st3" cx="291.8" cy="259.2" r="38.9"/>
		<path d="M542.3,90.8c0,0,18.9-55.3,27.9-50.8c9,4.5,27.9,54.3,22.9,58.8C588.2,103.3,538.3,101.9,542.3,90.8z"/>
		<path d="M327.1,90.8c0,0-18.9-55.3-27.9-50.8c-9,4.5-27.9,54.3-22.9,58.8C281.2,103.3,331.1,101.9,327.1,90.8z"/>
		<g>
			<g>
				<path d="M581.2,77.4c13.2-23.3,39.5-37.1,63.9-45.7c24.4-8.7,53.8-13.8,79.1-5.6c0.7,0.2,1-0.9,0.3-1.1
					c-25.6-8.3-54.8-2.9-79.7,5.6c-24.6,8.4-51.3,22.9-64.6,46.2C579.9,77.4,580.8,78,581.2,77.4L581.2,77.4z"/>
			</g>
			<g>
				<path d="M573.3,74.5c6.7-17.4,20.8-32.2,34-45C621,16.1,638,6,656.6,1.1c0.7-0.2,0.4-1.3-0.3-1.1c-18.2,4.8-34.2,14.4-48.2,27
					c-14.1,12.8-29.1,29.2-36,47.1C571.9,74.9,573,75.2,573.3,74.5L573.3,74.5z"/>
			</g>
			<g>
				<path d="M581.5,84.3c32.1-21.6,78.7-39,116.7-23.9c0.7,0.3,1-0.8,0.3-1.1c-38.3-15.2-85.3,2.2-117.6,24
					C580.3,83.7,580.9,84.7,581.5,84.3L581.5,84.3z"/>
			</g>
		</g>
		<g>
			<g>
				<path d="M298,76.8c-13-23-38.7-36.8-62.7-45.6c-25.1-9.2-55.5-14.7-81.5-6.3c-0.7,0.2-0.4,1.3,0.3,1.1c24.8-8.1,53-3,77.2,5
					c25,8.2,52.4,22.7,65.7,46.4C297.4,78,298.3,77.4,298,76.8L298,76.8z"/>
			</g>
			<g>
				<path d="M306,74.2c-6.8-17.5-21-32.6-34.2-45.5C257.9,15.2,240.7,5,221.9,0c-0.7-0.2-1,0.9-0.3,1.1
					c18.1,4.8,33.9,14.3,47.7,26.8c14,12.7,28.9,28.9,35.7,46.6C305.2,75.2,306.3,74.9,306,74.2L306,74.2z"/>
			</g>
			<g>
				<path d="M297.3,83.3C265,61.6,218,44.1,179.7,59.3c-0.7,0.3-0.4,1.3,0.3,1.1c38-15.1,84.7,2.3,116.7,23.9
					C297.3,84.7,297.9,83.7,297.3,83.3L297.3,83.3z"/>
			</g>
		</g>
		<g>
			<g>
				<g>
					<path d="M353.5,261.2c-18.7,0.1-37.3,2.6-55.9,0c-17.4-2.4-34.7-5.7-51.8-9.4c-33.8-7.4-66.8-18.3-97.7-34
						c-27.4-14-52.6-31.9-72.8-55.2c-19.4-22.5-32.8-49.4-42.1-77.4c-0.2-0.7-1.3-0.4-1.1,0.3c8.9,27.1,21.6,52.5,39.6,74.7
						c19.9,24.5,45.7,42.8,73.4,57.4c30.7,16.3,64,27,97.7,34.8c18,4.1,36.1,7.2,54.4,10c18.7,2.8,37.5,0.2,56.2,0
						C354.3,262.3,354.3,261.2,353.5,261.2L353.5,261.2z"/>
				</g>
				<g>
					<path d="M336.6,275.6c-54.4-0.1-109.5,1.5-163.6,7c-46.2,4.7-92.1,17.5-130.7,44c-0.6,0.4,0,1.4,0.6,1
						c40-27.6,87.4-39.8,135.2-44.4c52.5-5,105.8-6.6,158.5-6.5C337.3,276.7,337.3,275.6,336.6,275.6L336.6,275.6z"/>
				</g>
				<g>
					<path d="M333.6,281.2c-51.9,0.1-103.7,5.4-153.7,20.1C126.7,317,79.2,345.5,33.2,376c-0.6,0.4,0,1.4,0.6,1
						c45.3-30,91.9-57.7,144.1-73.9c50.3-15.5,103.2-20.7,155.7-20.8C334.3,282.3,334.3,281.2,333.6,281.2L333.6,281.2z"/>
				</g>
				<g>
					<path d="M342.8,267.3c-11.2,4.8-24.5,4.1-36.5,4c-6.5-0.1-13.1,0.1-19.6-0.1c-8.4-0.3-17.1-2.1-25.4-3.1
						c-15.9-1.8-31.9-3.3-47.7-6.3c-15.5-2.9-30.7-6.9-46.1-10.3c-13.6-3-27.3-5.5-41.2-6.8c-13.7-1.3-28-2.6-41.4,0.8
						c-7.7,2-15,4.8-23,5.8c-7.6,1-15.8-0.5-23.1-2.3c-14.2-3.5-27-11.8-37.8-21.5c-0.5-0.5-1.3,0.3-0.8,0.8
						c18.1,16.2,42.3,27.8,67.1,23.3c7.8-1.4,15.3-4.5,23.1-6.2c8.2-1.8,17.1-0.8,25.4-0.2c17.4,1.1,34.4,3.7,51.5,7.5
						c16.3,3.6,32.4,7.7,48.8,10.8c15.9,3,32,4.3,48.1,6.1c8.5,1,16.9,2.6,25.4,2.9c6.9,0.2,13.9,0,20.9,0c10.9,0.1,22.8,0.3,33-4.1
						C344,268,343.4,267,342.8,267.3L342.8,267.3z"/>
				</g>
			</g>
			<g>
				<circle cx="354.1" cy="261.8" r="2.9"/>
				<circle cx="347.8" cy="273.9" r="2.9"/>
				<circle cx="343.3" cy="268.3" r="1.8"/>
				<circle cx="336.3" cy="258.3" r="1.8"/>
				<circle cx="355.1" cy="269.2" r="1.8"/>
				<circle cx="366.7" cy="269.2" r="1.2"/>
				<circle cx="326.7" cy="285.3" r="1.2"/>
				<circle cx="337.1" cy="276.9" r="1.7"/>
				<circle cx="346.1" cy="282" r="1.7"/>
				<circle cx="334.8" cy="282" r="1.5"/>
				<circle cx="361" cy="281.2" r="1.5"/>
			</g>
		</g>
		<g>
			<g>
				<g>
					<path d="M473.2,261.2c18.7,0.1,37.3,2.6,55.9,0c17.4-2.4,34.7-5.7,51.8-9.4c33.8-7.4,66.8-18.3,97.7-34
						c27.4-14,52.6-31.9,72.8-55.2c19.4-22.5,32.8-49.4,42.1-77.4c0.2-0.7,1.3-0.4,1.1,0.3c-8.9,27.1-21.6,52.5-39.6,74.7
						c-19.9,24.5-45.7,42.8-73.4,57.4c-30.7,16.3-64,27-97.7,34.8c-18,4.1-36.1,7.2-54.4,10c-18.7,2.8-37.5,0.2-56.2,0
						C472.5,262.3,472.5,261.2,473.2,261.2L473.2,261.2z"/>
				</g>
				<g>
					<path d="M490.2,275.6c54.4-0.1,109.5,1.5,163.6,7c46.2,4.7,92.1,17.5,130.7,44c0.6,0.4,0,1.4-0.6,1
						c-40-27.6-87.4-39.8-135.2-44.4c-52.5-5-105.8-6.6-158.5-6.5C489.5,276.7,489.5,275.6,490.2,275.6L490.2,275.6z"/>
				</g>
				<g>
					<path d="M493.2,281.2c51.9,0.1,103.7,5.4,153.7,20.1c53.3,15.8,100.7,44.2,146.7,74.7c0.6,0.4,0,1.4-0.6,1
						c-45.3-30-91.9-57.7-144.1-73.9c-50.3-15.5-103.2-20.7-155.7-20.8C492.5,282.3,492.5,281.2,493.2,281.2L493.2,281.2z"/>
				</g>
				<g>
					<path d="M484,267.3c11.2,4.8,24.5,4.1,36.5,4c6.5-0.1,13.1,0.1,19.6-0.1c8.4-0.3,17.1-2.1,25.4-3.1c15.9-1.8,31.9-3.3,47.7-6.3
						c15.5-2.9,30.7-6.9,46.1-10.3c13.6-3,27.3-5.5,41.2-6.8c13.7-1.3,28-2.6,41.4,0.8c7.7,2,15,4.8,23,5.8c7.6,1,15.8-0.5,23.1-2.3
						c14.2-3.5,27-11.8,37.8-21.5c0.5-0.5,1.3,0.3,0.8,0.8c-18.1,16.2-42.3,27.8-67.1,23.3c-7.8-1.4-15.3-4.5-23.1-6.2
						c-8.2-1.8-17.1-0.8-25.4-0.2c-17.4,1.1-34.4,3.7-51.5,7.5c-16.3,3.6-32.4,7.7-48.8,10.8c-15.9,3-32,4.3-48.1,6.1
						c-8.5,1-16.9,2.6-25.4,2.9c-6.9,0.2-13.9,0-20.9,0c-10.9,0.1-22.8,0.3-33-4.1C482.8,268,483.3,267,484,267.3L484,267.3z"/>
				</g>
			</g>
			<g>
				<circle cx="472.7" cy="261.8" r="2.9"/>
				<circle cx="479" cy="273.9" r="2.9"/>
				<circle cx="483.4" cy="268.3" r="1.8"/>
				<circle cx="490.5" cy="258.3" r="1.8"/>
				<circle cx="471.6" cy="269.2" r="1.8"/>
				<circle cx="460.1" cy="269.2" r="1.2"/>
				<circle cx="500.1" cy="285.3" r="1.2"/>
				<circle cx="489.7" cy="276.9" r="1.7"/>
				<circle cx="480.7" cy="282" r="1.7"/>
				<circle cx="492" cy="282" r="1.5"/>
				<circle cx="465.8" cy="281.2" r="1.5"/>
			</g>
		</g>
		<path d="M433.6,79.2c-6.5-0.2-13.1-0.1-19.9,0.1c0.1,26.4,1.7,70.4,11.8,64.4c10-6,15.5-43,17.9-64.6
			C440.2,79.1,436.9,79.1,433.6,79.2z"/>
		<path d="M394.6,80.5c-8.7,0.9-17.5,2.1-26.1,3.9c1.1,22,4,42.9,11.1,38.6C386.7,118.8,391.5,99.2,394.6,80.5z"/>
		<path d="M494.9,83.7c-8-1.5-16-2.6-24.1-3.3c1.2,21,4.2,40.1,11,36C487.6,112.8,491.9,98.9,494.9,83.7z"/>
	</g>
	<g id="right-leg">
		<path class="st0" d="M193.1,485c0,0-85-70.9-104,0c-18.9,70.9,150.5,160.3,150.5,160.3s-45.4-0.1-43.4,18.5
			c1.1,10.8,93.7,12.2,105.4-3c11.8-15.2-14.2-50.1-15.2-53.1C285.6,604.8,193.1,485,193.1,485z"/>
		<g>
			<path class="st4" d="M201.5,657.3c0.9-1.3,2.5-1.7,4.1-1.7c1.2,0,1.2-1.9,0-1.9c-2.2,0-4.4,0.7-5.7,2.6
				C199.3,657.3,200.9,658.3,201.5,657.3L201.5,657.3z"/>
		</g>
		<g>
			<path class="st4" d="M202.8,662.2c0.8-1.2,2.3-2.6,3.9-2.5c1.2,0.1,1.2-1.8,0-1.9c-2.2-0.1-4.4,1.7-5.5,3.5
				C200.5,662.3,202.1,663.3,202.8,662.2L202.8,662.2z"/>
		</g>
		<g>
			<path class="st4" d="M205.9,665.9c0.9-1,1.7-2.2,3.2-2.3c1.2,0,1.2-1.9,0-1.9c-2,0.1-3.3,1.4-4.5,2.8
				C203.8,665.5,205.1,666.8,205.9,665.9L205.9,665.9z"/>
		</g>
	</g>
	<g id="left-leg">
		<path class="st0" d="M661.7,485c0,0,85-70.9,104,0c18.9,70.9-150.5,160.3-150.5,160.3s45.4-0.1,43.4,18.5
			c-1.1,10.8-93.7,12.2-105.4-3c-11.8-15.2,14.2-50.1,15.2-53.1C569.3,604.8,661.7,485,661.7,485z"/>
		<g>
			<path class="st4" d="M653.3,657.3c-0.9-1.3-2.5-1.7-4.1-1.7c-1.2,0-1.2-1.9,0-1.9c2.2,0,4.4,0.7,5.7,2.6
				C655.6,657.3,654,658.3,653.3,657.3L653.3,657.3z"/>
		</g>
		<g>
			<path class="st4" d="M652.1,662.2c-0.8-1.2-2.3-2.6-3.9-2.5c-1.2,0.1-1.2-1.8,0-1.9c2.2-0.1,4.4,1.7,5.5,3.5
				C654.3,662.3,652.7,663.3,652.1,662.2L652.1,662.2z"/>
		</g>
		<g>
			<path class="st4" d="M649,665.9c-0.9-1-1.7-2.2-3.2-2.3c-1.2,0-1.2-1.9,0-1.9c2,0.1,3.3,1.4,4.5,2.8
				C651,665.5,649.7,666.8,649,665.9L649,665.9z"/>
		</g>
	</g>
	<g>
		<circle class="st5" cx="430.2" cy="492" r="156.7"/>
		<path class="st5" d="M430.2,593c-77,0-141.1-55.6-154.2-128.8c-1.6,9-2.5,18.3-2.5,27.8c0,86.5,70.1,156.7,156.7,156.7
			c86.5,0,156.7-70.1,156.7-156.7c0-9.5-0.8-18.8-2.5-27.8C571.3,537.4,507.3,593,430.2,593z"/>
	</g>
</g>
</svg>
